<?xml version="1.0" encoding="UTF-8"?>
<svg version="1.1" viewBox="0 0 38 20" xmlns="http://www.w3.org/2000/svg"><rect width="38" height="20" fill="#B31942"/><g fill="#fff"><rect y="1.54" width="38" height="1.54"/><rect y="4.62" width="38" height="1.54"/><rect y="7.7" width="38" height="1.54"/><rect y="10.78" width="38" height="1.54"/><rect y="13.86" width="38" height="1.54"/><rect y="16.94" width="38" height="1.54"/></g><rect width="15.2" height="10.78" fill="#0A3161"/><g transform="matrix(1.2372 0 0 1.2372 -.62744 .19372)" fill="#fff"><circle cx="1.9" cy="1.6" r=".45"/><circle cx="3.8" cy="1.6" r=".45"/><circle cx="5.7" cy="1.6" r=".45"/><circle cx="7.6" cy="1.6" r=".45"/><circle cx="9.5" cy="1.6" r=".45"/><circle cx="11.4" cy="1.6" r=".45"/><circle cx="2.85" cy="2.9" r=".45"/><circle cx="4.75" cy="2.9" r=".45"/><circle cx="6.65" cy="2.9" r=".45"/><circle cx="8.55" cy="2.9" r=".45"/><circle cx="10.45" cy="2.9" r=".45"/><circle cx="1.9" cy="4.2" r=".45"/><circle cx="3.8" cy="4.2" r=".45"/><circle cx="5.7" cy="4.2" r=".45"/><circle cx="7.6" cy="4.2" r=".45"/><circle cx="9.5" cy="4.2" r=".45"/><circle cx="11.4" cy="4.2" r=".45"/><circle cx="2.85" cy="5.5" r=".45"/><circle cx="4.75" cy="5.5" r=".45"/><circle cx="6.65" cy="5.5" r=".45"/><circle cx="8.55" cy="5.5" r=".45"/><circle cx="10.45" cy="5.5" r=".45"/><circle cx="1.9" cy="6.8" r=".45"/><circle cx="3.8" cy="6.8" r=".45"/><circle cx="5.7" cy="6.8" r=".45"/><circle cx="7.6" cy="6.8" r=".45"/><circle cx="9.5" cy="6.8" r=".45"/><circle cx="11.4" cy="6.8" r=".45"/></g></svg>
